# xmcd
#
# Track frame offsets:
#	150
#	11142
#	24172
#	36392
#	48882
#	59167
#	70720
#	82742
#	95197
#	108282
#	118195
#	128750
#	140410
#	153257
#	166230
#	176050
#	185592
#	199612
#	212495
#	223912
#
# Disc length: 3113
#
# Revision: 1
# Processed by: cddbd v1.5.1PL0 Copyright (c) Steve Scherf et al.
# Submitted via: dBpowerAMP V4.0
# Normalized: r0:TDELIM( - )
#
DISCID=1c0c2714
DTITLE=Various Artist - Kings Of Country Disk 1
DYEAR=1900
DGENRE=Country
TTITLE0=Eddy Arnold - Bouguet Of Roses
TTITLE1=Eddy Arnold - Just A Little Lovin'
TTITLE2=Eddy Arnold - Make The World Go Away
TTITLE3=Eddy Arnold - Cattle Call
TTITLE4=Eddy Arnold - Anytime
TTITLE5=Eddy Arnold - I'll Hold You In My Heart
TTITLE6=Eddy Arnold - I Want To Go With You
TTITLE7=Eddy Arnold - That's How Much I Love You
TTITLE8=Eddy Arnold - I Really Don't Want To Know
TTITLE9=Eddy Arnold - What's He Doin' In My World
TTITLE10=Jim Reeves - He'll Have To Go
TTITLE11=Jim Reeves - Welcome To My World
TTITLE12=Jim Reeves - Bimbo
TTITLE13=Jim Reeves - Four Walls
TTITLE14=Jim Reeves - When Two Worlds Collide
TTITLE15=Jim Reeves - Billy Bayou
TTITLE16=Jim Reeves - This Is It
TTITLE17=Jim Reeves - Distant Drums
TTITLE18=Jim Reeves - Adios Amigo
TTITLE19=Jim Reeves - I Won't Come In While He's There
EXTD=
EXTT0=
EXTT1=
EXTT2=
EXTT3=
EXTT4=
EXTT5=
EXTT6=
EXTT7=
EXTT8=
EXTT9=
EXTT10=
EXTT11=
EXTT12=
EXTT13=
EXTT14=
EXTT15=
EXTT16=
EXTT17=
EXTT18=
EXTT19=
PLAYORDER=
